<svg width="14" height="14" viewBox="0 0 14 14" fill="none" xmlns="http://www.w3.org/2000/svg">
<path d="M6.79078 13.5935C8.50764 13.5935 10.1542 12.9115 11.3682 11.6975C12.5822 10.4835 13.2642 8.83698 13.2642 7.12013C13.2642 5.40328 12.5822 3.75674 11.3682 2.54274C10.1542 1.32875 8.50764 0.646729 6.79078 0.646729C5.07393 0.646729 3.4274 1.32875 2.2134 2.54274C0.9994 3.75674 0.317383 5.40328 0.317383 7.12013C0.317383 8.83698 0.9994 10.4835 2.2134 11.6975C3.4274 12.9115 5.07393 13.5935 6.79078 13.5935ZM9.64818 5.93165L6.41148 9.16835C6.17379 9.40605 5.78943 9.40605 5.55426 9.16835L3.93591 7.55C3.69822 7.31231 3.69822 6.92795 3.93591 6.69278C4.17361 6.45762 4.55797 6.45509 4.79313 6.69278L5.98161 7.88126L8.78843 5.0719C9.02613 4.83421 9.41049 4.83421 9.64565 5.0719C9.88082 5.3096 9.88335 5.69396 9.64565 5.92912L9.64818 5.93165Z" fill="#14A7A0"/>
</svg>
