<svg width="15" height="14" viewBox="0 0 15 14" fill="none" xmlns="http://www.w3.org/2000/svg">
<path d="M7.47282 10.0384L7.47535 10.0359L8.14261 10.3923L10.296 11.5423L9.87901 9.07545L9.75769 8.35006L10.2809 7.83192L12.0527 6.08036L9.62373 5.72145L8.88317 5.61277L8.55712 4.94045L7.47535 2.7213L7.47282 2.72889V10.0384ZM11.8985 12.523C11.949 12.8263 11.8227 13.1346 11.5724 13.3141C11.3222 13.4935 10.9911 13.5163 10.7181 13.3722L7.47535 11.6409L4.23256 13.3722C3.95959 13.5163 3.62849 13.4935 3.37826 13.3141C3.12804 13.1346 3.00167 12.8263 3.05222 12.523L3.67651 8.84039L1.04285 6.23454C0.825484 6.0197 0.747132 5.6987 0.843177 5.40804C0.939222 5.11738 1.18945 4.90507 1.49275 4.85957L5.12224 4.32374L6.74996 0.979853C6.88644 0.701828 7.16699 0.524902 7.47788 0.524902C7.78876 0.524902 8.06931 0.701828 8.2058 0.979853L9.83098 4.32374L13.4605 4.85957C13.7638 4.90507 14.0165 5.11738 14.11 5.40804C14.2036 5.6987 14.1277 6.0197 13.9104 6.23454L11.2767 8.84039L11.8985 12.523Z" fill="#FFC107"/>
</svg>
