<svg width="18" height="14" viewBox="0 0 18 14" fill="none" xmlns="http://www.w3.org/2000/svg">
<path d="M4.50023 0.522705C5.03683 0.522705 5.55145 0.735867 5.93088 1.1153C6.31031 1.49473 6.52347 2.00935 6.52347 2.54595C6.52347 3.08254 6.31031 3.59716 5.93088 3.97659C5.55145 4.35602 5.03683 4.56919 4.50023 4.56919C3.96364 4.56919 3.44902 4.35602 3.06958 3.97659C2.69015 3.59716 2.47699 3.08254 2.47699 2.54595C2.47699 2.00935 2.69015 1.49473 3.06958 1.1153C3.44902 0.735867 3.96364 0.522705 4.50023 0.522705ZM13.8071 0.522705C14.3437 0.522705 14.8584 0.735867 15.2378 1.1153C15.6172 1.49473 15.8304 2.00935 15.8304 2.54595C15.8304 3.08254 15.6172 3.59716 15.2378 3.97659C14.8584 4.35602 14.3437 4.56919 13.8071 4.56919C13.2705 4.56919 12.7559 4.35602 12.3765 3.97659C11.9971 3.59716 11.7839 3.08254 11.7839 2.54595C11.7839 2.00935 11.9971 1.49473 12.3765 1.1153C12.7559 0.735867 13.2705 0.522705 13.8071 0.522705ZM0.858398 8.07698C0.858398 6.58737 2.06728 5.37848 3.5569 5.37848H4.6368C5.03892 5.37848 5.42081 5.467 5.76476 5.6238C5.73188 5.80589 5.71671 5.99557 5.71671 6.18778C5.71671 7.15388 6.14159 8.02134 6.81179 8.61567C6.80673 8.61567 6.80167 8.61567 6.79408 8.61567H1.39709C1.10119 8.61567 0.858398 8.37288 0.858398 8.07698ZM11.1086 8.61567C11.1036 8.61567 11.0985 8.61567 11.0909 8.61567C11.7637 8.02134 12.186 7.15388 12.186 6.18778C12.186 5.99557 12.1683 5.80842 12.138 5.6238C12.4819 5.46447 12.8638 5.37848 13.2659 5.37848H14.3458C15.8354 5.37848 17.0443 6.58737 17.0443 8.07698C17.0443 8.37541 16.8015 8.61567 16.5056 8.61567H11.1112H11.1086ZM6.52347 6.18778C6.52347 5.54386 6.77927 4.92632 7.23459 4.471C7.6899 4.01569 8.30745 3.75989 8.95136 3.75989C9.59528 3.75989 10.2128 4.01569 10.6681 4.471C11.1235 4.92632 11.3793 5.54386 11.3793 6.18778C11.3793 6.8317 11.1235 7.44924 10.6681 7.90456C10.2128 8.35987 9.59528 8.61567 8.95136 8.61567C8.30745 8.61567 7.6899 8.35987 7.23459 7.90456C6.77927 7.44924 6.52347 6.8317 6.52347 6.18778ZM4.09558 12.7962C4.09558 10.9348 5.60543 9.42497 7.46681 9.42497H10.4334C12.2973 9.42497 13.8071 10.9348 13.8071 12.7962C13.8071 13.168 13.5062 13.4714 13.1319 13.4714H4.76831C4.39654 13.4714 4.09306 13.1705 4.09306 12.7962H4.09558Z" fill="#212529"/>
</svg>
