<svg width="16" height="14" viewBox="0 0 16 14" fill="none" xmlns="http://www.w3.org/2000/svg">
<path d="M9.42221 6.18749H8.24692C7.10954 6.18749 6.187 7.11003 6.187 8.24741C6.187 8.81104 6.44733 9.11434 6.67228 9.27105C6.84415 9.38984 6.9958 9.57435 6.9958 9.78413C6.9958 10.0318 6.7936 10.234 6.54591 10.234H6.48272C6.42206 10.234 6.3614 10.2239 6.30327 10.1986C5.85337 9.99897 3.7606 8.95258 3.7606 6.59189C3.7606 4.58252 5.39084 2.95228 7.4002 2.95228H9.42221V1.40292C9.42221 0.917642 9.81397 0.525879 10.2993 0.525879C10.5166 0.525879 10.7239 0.606759 10.8856 0.750827L14.3786 3.89504C14.5707 4.06691 14.6794 4.31208 14.6794 4.56989C14.6794 4.82769 14.5707 5.07286 14.3786 5.24473L10.8654 8.40664C10.7163 8.5406 10.5242 8.61389 10.3245 8.61389H10.231C9.78364 8.61389 9.42221 8.25246 9.42221 7.80509V6.18749ZM2.54739 2.95228C2.32497 2.95228 2.14299 3.13426 2.14299 3.35668V11.4447C2.14299 11.6671 2.32497 11.8491 2.54739 11.8491H10.6354C10.8578 11.8491 11.0398 11.6671 11.0398 11.4447V10.2315C11.0398 9.78413 11.4012 9.4227 11.8486 9.4227C12.296 9.4227 12.6574 9.78413 12.6574 10.2315V11.4447C12.6574 12.5619 11.7526 13.4667 10.6354 13.4667H2.54739C1.43024 13.4667 0.525391 12.5619 0.525391 11.4447V3.35668C0.525391 2.23953 1.43024 1.33468 2.54739 1.33468H3.7606C4.20797 1.33468 4.5694 1.69611 4.5694 2.14348C4.5694 2.59085 4.20797 2.95228 3.7606 2.95228H2.54739Z" fill="white"/>
</svg>
