<svg width="12" height="13" viewBox="0 0 12 13" fill="none" xmlns="http://www.w3.org/2000/svg">
<path d="M10.7409 6.62201C10.7409 7.84338 10.2557 9.01472 9.39203 9.87836C8.5284 10.742 7.35705 11.2272 6.13568 11.2272C4.91431 11.2272 3.74297 10.742 2.87933 9.87836C2.01569 9.01472 1.53051 7.84338 1.53051 6.62201C1.53051 5.40064 2.01569 4.2293 2.87933 3.36566C3.74297 2.50202 4.91431 2.01683 6.13568 2.01683C7.35705 2.01683 8.5284 2.50202 9.39203 3.36566C10.2557 4.2293 10.7409 5.40064 10.7409 6.62201ZM0.467773 6.62201C0.467773 8.12523 1.06493 9.56689 2.12787 10.6298C3.1908 11.6928 4.63246 12.2899 6.13568 12.2899C7.63891 12.2899 9.08056 11.6928 10.1435 10.6298C11.2064 9.56689 11.8036 8.12523 11.8036 6.62201C11.8036 5.11879 11.2064 3.67713 10.1435 2.61419C9.08056 1.55125 7.63891 0.954102 6.13568 0.954102C4.63246 0.954102 3.1908 1.55125 2.12787 2.61419C1.06493 3.67713 0.467773 5.11879 0.467773 6.62201ZM5.60432 3.61093V6.62201C5.60432 6.79913 5.69288 6.96518 5.84122 7.06482L7.96668 8.48179C8.21023 8.64563 8.54012 8.57921 8.70395 8.33345C8.86779 8.0877 8.80137 7.76002 8.55561 7.59618L6.66705 6.33861V3.61093C6.66705 3.31647 6.43015 3.07957 6.13568 3.07957C5.84122 3.07957 5.60432 3.31647 5.60432 3.61093Z" fill="#212529" fill-opacity="0.75"/>
</svg>
