<svg width="12" height="14" viewBox="0 0 12 14" fill="none" xmlns="http://www.w3.org/2000/svg">
<path d="M4.39624 2.54705C4.39624 1.87747 4.93948 1.33423 5.60906 1.33423H6.4176C7.08718 1.33423 7.63042 1.87747 7.63042 2.54705V11.441C7.63042 12.1106 7.08718 12.6539 6.4176 12.6539H5.60906C4.93948 12.6539 4.39624 12.1106 4.39624 11.441V2.54705ZM0.353516 7.39831C0.353516 6.72874 0.896756 6.1855 1.56633 6.1855H2.37488C3.04445 6.1855 3.58769 6.72874 3.58769 7.39831V11.441C3.58769 12.1106 3.04445 12.6539 2.37488 12.6539H1.56633C0.896756 12.6539 0.353516 12.1106 0.353516 11.441V7.39831ZM9.65178 2.95132H10.4603C11.1299 2.95132 11.6731 3.49456 11.6731 4.16413V11.441C11.6731 12.1106 11.1299 12.6539 10.4603 12.6539H9.65178C8.9822 12.6539 8.43896 12.1106 8.43896 11.441V4.16413C8.43896 3.49456 8.9822 2.95132 9.65178 2.95132Z" fill="#212529"/>
</svg>
