<svg width="14" height="14" viewBox="0 0 14 14" fill="none" xmlns="http://www.w3.org/2000/svg">
<path d="M6.85621 0.522705C8.57306 0.522705 10.2196 1.20472 11.4336 2.41872C12.6476 3.63272 13.3296 5.27925 13.3296 6.9961C13.3296 8.71296 12.6476 10.3595 11.4336 11.5735C10.2196 12.7875 8.57306 13.4695 6.85621 13.4695C5.13936 13.4695 3.49283 12.7875 2.27883 11.5735C1.06483 10.3595 0.382813 8.71296 0.382812 6.9961C0.382813 5.27925 1.06483 3.63272 2.27883 2.41872C3.49283 1.20472 5.13936 0.522705 6.85621 0.522705ZM6.24933 3.55711V6.9961C6.24933 7.1984 6.35048 7.38805 6.5199 7.50184L8.94742 9.12019C9.22558 9.30731 9.60235 9.23145 9.78947 8.95077C9.97659 8.67008 9.90073 8.29584 9.62005 8.10872L7.46309 6.67243V3.55711C7.46309 3.2208 7.19253 2.95023 6.85621 2.95023C6.5199 2.95023 6.24933 3.2208 6.24933 3.55711Z" fill="#212529"/>
</svg>
