<svg width="12" height="13" viewBox="0 0 12 13" fill="none" xmlns="http://www.w3.org/2000/svg">
<path d="M10.8151 6.62201C10.8151 5.40064 10.3299 4.2293 9.46625 3.36566C8.60261 2.50202 7.43127 2.01683 6.2099 2.01683C4.98853 2.01683 3.81719 2.50202 2.95355 3.36566C2.08991 4.2293 1.60473 5.40064 1.60473 6.62201C1.60473 7.84338 2.08991 9.01472 2.95355 9.87836C3.81719 10.742 4.98853 11.2272 6.2099 11.2272C7.43127 11.2272 8.60261 10.742 9.46625 9.87836C10.3299 9.01472 10.8151 7.84338 10.8151 6.62201ZM0.541992 6.62201C0.541992 5.11879 1.13915 3.67713 2.20208 2.61419C3.26502 1.55125 4.70668 0.954102 6.2099 0.954102C7.71312 0.954102 9.15478 1.55125 10.2177 2.61419C11.2807 3.67713 11.8778 5.11879 11.8778 6.62201C11.8778 8.12523 11.2807 9.56689 10.2177 10.6298C9.15478 11.6928 7.71312 12.2899 6.2099 12.2899C4.70668 12.2899 3.26502 11.6928 2.20208 10.6298C1.13915 9.56689 0.541992 8.12523 0.541992 6.62201ZM4.711 4.21094C4.87927 4.11795 5.08296 4.12016 5.24901 4.22201L8.43721 6.17035C8.59441 6.26777 8.69182 6.43825 8.69182 6.62422C8.69182 6.8102 8.59441 6.98068 8.43721 7.0781L5.24901 9.02644C5.08518 9.12607 4.87927 9.1305 4.711 9.03751C4.54274 8.94452 4.43868 8.7674 4.43868 8.57478V4.67809C4.43868 4.48547 4.54274 4.30835 4.711 4.21536V4.21094Z" fill="#212529" fill-opacity="0.75"/>
</svg>
