<svg width="56" height="40" viewBox="0 0 56 40" fill="none" xmlns="http://www.w3.org/2000/svg">
<path d="M27.8765 1.1416C27.9097 1.14183 27.9592 1.14206 28.0239 1.14258C28.1538 1.14363 28.3454 1.14588 28.5903 1.14844C29.0802 1.15355 29.7849 1.16189 30.644 1.17578C32.363 1.20358 34.6997 1.25302 37.1694 1.33789C39.64 1.42279 42.2403 1.54309 44.4888 1.71387C46.4684 1.86423 48.1429 2.05152 49.2163 2.2793L49.6392 2.37988C51.7718 2.94761 53.0662 4.75909 53.6724 7.03613L53.6733 7.03711C54.2333 9.13125 54.5311 12.3753 54.687 15.1299C54.7645 16.4998 54.8062 17.7365 54.8286 18.6309C54.8398 19.0778 54.8465 19.4393 54.8501 19.6885C54.8519 19.8131 54.8524 19.9103 54.853 19.9756C54.8533 20.0078 54.8539 20.0323 54.854 20.0488V20.0928C54.8539 20.1093 54.8533 20.1344 54.853 20.167C54.8524 20.2322 54.8519 20.3287 54.8501 20.4531C54.8465 20.7023 54.8398 21.0636 54.8286 21.5107C54.8062 22.4052 54.7646 23.6425 54.687 25.0127C54.5311 27.7674 54.2333 31.0114 53.6733 33.1055H53.6724C53.0852 35.3112 51.8525 37.0804 49.8374 37.7051L49.6392 37.7627C48.6157 38.0364 46.7514 38.2559 44.4888 38.4277C42.2403 38.5985 39.64 38.7198 37.1694 38.8047C34.6997 38.8896 32.363 38.938 30.644 38.9658C29.7849 38.9797 29.0802 38.9881 28.5903 38.9932C28.3454 38.9957 28.1538 38.998 28.0239 38.999C27.9592 38.9995 27.9097 38.9998 27.8765 39H27.7817C27.7485 38.9998 27.699 38.9995 27.6343 38.999C27.5044 38.998 27.3128 38.9957 27.0679 38.9932C26.578 38.9881 25.8733 38.9797 25.0142 38.9658C23.2952 38.938 20.9585 38.8896 18.4888 38.8047C16.0182 38.7198 13.4179 38.5985 11.1694 38.4277C9.18974 38.2774 7.51525 38.0901 6.44189 37.8623L6.01904 37.7627C4.01975 37.2305 2.75646 35.6047 2.10693 33.5273L1.98584 33.1055C1.42585 31.0114 1.12711 27.7674 0.971191 25.0127C0.893642 23.6425 0.852011 22.4052 0.82959 21.5107C0.818382 21.0636 0.811656 20.7023 0.808105 20.4531C0.806333 20.3287 0.805806 20.2322 0.805176 20.167C0.804861 20.1344 0.804324 20.1093 0.804199 20.0928V20.0488C0.804323 20.0323 0.804865 20.0078 0.805176 19.9756C0.805805 19.9103 0.80633 19.8131 0.808105 19.6885C0.811657 19.4393 0.818386 19.0778 0.82959 18.6309C0.852011 17.7365 0.893664 16.4998 0.971191 15.1299C1.1271 12.3751 1.42485 9.13026 1.98486 7.03613C2.58049 4.82825 3.80773 3.06064 5.82178 2.43652L6.01904 2.37988C7.04249 2.10619 8.90679 1.88572 11.1694 1.71387C13.4179 1.54309 16.0182 1.42279 18.4888 1.33789C20.9585 1.25302 23.2952 1.20358 25.0142 1.17578C25.8733 1.16189 26.578 1.15355 27.0679 1.14844C27.3128 1.14588 27.5044 1.14363 27.6343 1.14258C27.699 1.14206 27.7485 1.14183 27.7817 1.1416H27.8765Z" fill="#4689CD" stroke="black"/>
<path d="M36.7344 20.0709L22.1624 11.9753V28.1665" fill="white"/>
</svg>
