<svg width="15" height="17" viewBox="0 0 15 17" fill="none" xmlns="http://www.w3.org/2000/svg">
<path d="M14.6363 3.83529C14.6363 2.71879 13.7286 1.81104 12.6121 1.81104H2.49081C1.3743 1.81104 0.466553 2.71879 0.466553 3.83529V13.9566C0.466553 15.0731 1.3743 15.9808 2.49081 15.9808H12.6121C13.7286 15.9808 14.6363 15.0731 14.6363 13.9566V3.83529ZM8.56357 5.85954C8.56357 6.41937 8.11127 6.87167 7.55144 6.87167H4.51506C3.95523 6.87167 3.50293 6.41937 3.50293 5.85954C3.50293 5.29971 3.95523 4.84741 4.51506 4.84741H7.55144C8.11127 4.84741 8.56357 5.29971 8.56357 5.85954ZM10.5878 7.88379C11.1477 7.88379 11.5999 8.33609 11.5999 8.89592C11.5999 9.45575 11.1477 9.90805 10.5878 9.90805H4.51506C3.95523 9.90805 3.50293 9.45575 3.50293 8.89592C3.50293 8.33609 3.95523 7.88379 4.51506 7.88379H10.5878ZM6.53931 11.9323C6.53931 12.4921 6.08702 12.9444 5.52719 12.9444H4.51506C3.95523 12.9444 3.50293 12.4921 3.50293 11.9323C3.50293 11.3725 3.95523 10.9202 4.51506 10.9202H5.52719C6.08702 10.9202 6.53931 11.3725 6.53931 11.9323Z" fill="#14A7A0"/>
</svg>
