<svg width="21" height="17" viewBox="0 0 21 17" fill="none" xmlns="http://www.w3.org/2000/svg">
<path d="M10.7404 0.640137C11.3002 0.640137 11.7525 1.09243 11.7525 1.65226V3.67652H15.548C16.8068 3.67652 17.8253 4.69497 17.8253 5.9538V14.5569C17.8253 15.8157 16.8068 16.8342 15.548 16.8342H5.93281C4.67397 16.8342 3.65552 15.8157 3.65552 14.5569V5.9538C3.65552 4.69497 4.67397 3.67652 5.93281 3.67652H9.72828V1.65226C9.72828 1.09243 10.1806 0.640137 10.7404 0.640137ZM7.19796 12.7857C6.91963 12.7857 6.6919 13.0134 6.6919 13.2917C6.6919 13.5701 6.91963 13.7978 7.19796 13.7978H8.21009C8.48842 13.7978 8.71615 13.5701 8.71615 13.2917C8.71615 13.0134 8.48842 12.7857 8.21009 12.7857H7.19796ZM10.2343 12.7857C9.95601 12.7857 9.72828 13.0134 9.72828 13.2917C9.72828 13.5701 9.95601 13.7978 10.2343 13.7978H11.2465C11.5248 13.7978 11.7525 13.5701 11.7525 13.2917C11.7525 13.0134 11.5248 12.7857 11.2465 12.7857H10.2343ZM13.2707 12.7857C12.9924 12.7857 12.7647 13.0134 12.7647 13.2917C12.7647 13.5701 12.9924 13.7978 13.2707 13.7978H14.2828C14.5612 13.7978 14.7889 13.5701 14.7889 13.2917C14.7889 13.0134 14.5612 12.7857 14.2828 12.7857H13.2707ZM8.96918 8.73715C8.96918 8.40161 8.83589 8.07981 8.59863 7.84255C8.36137 7.60528 8.03957 7.47199 7.70403 7.47199C7.36849 7.47199 7.04669 7.60528 6.80942 7.84255C6.57216 8.07981 6.43887 8.40161 6.43887 8.73715C6.43887 9.07269 6.57216 9.39449 6.80942 9.63175C7.04669 9.86901 7.36849 10.0023 7.70403 10.0023C8.03957 10.0023 8.36137 9.86901 8.59863 9.63175C8.83589 9.39449 8.96918 9.07269 8.96918 8.73715ZM13.7768 10.0023C14.1123 10.0023 14.4341 9.86901 14.6714 9.63175C14.9087 9.39449 15.0419 9.07269 15.0419 8.73715C15.0419 8.40161 14.9087 8.07981 14.6714 7.84255C14.4341 7.60528 14.1123 7.47199 13.7768 7.47199C13.4412 7.47199 13.1194 7.60528 12.8822 7.84255C12.6449 8.07981 12.5116 8.40161 12.5116 8.73715C12.5116 9.07269 12.6449 9.39449 12.8822 9.63175C13.1194 9.86901 13.4412 10.0023 13.7768 10.0023ZM2.13733 7.72502H2.64339V13.7978H2.13733C1.29916 13.7978 0.619141 13.1178 0.619141 12.2796V9.24321C0.619141 8.40505 1.29916 7.72502 2.13733 7.72502ZM19.3435 7.72502C20.1817 7.72502 20.8617 8.40505 20.8617 9.24321V12.2796C20.8617 13.1178 20.1817 13.7978 19.3435 13.7978H18.8374V7.72502H19.3435Z" fill="#14A7A0"/>
</svg>
