<svg width="17" height="17" viewBox="0 0 17 17" fill="none" xmlns="http://www.w3.org/2000/svg">
<path d="M10.4423 0.667495C10.262 0.363857 9.92994 0.177246 9.57569 0.177246C9.22145 0.177246 8.88934 0.363857 8.70906 0.667495L5.67268 5.72813C5.48607 6.04125 5.47974 6.43029 5.66003 6.74658C5.84031 7.06287 6.17558 7.25897 6.53931 7.25897H12.6121C12.9758 7.25897 13.3142 7.06287 13.4914 6.74658C13.6685 6.43029 13.6653 6.04125 13.4787 5.72813L10.4423 0.667495ZM9.57569 10.0455V14.6C9.57569 15.299 10.1419 15.8652 10.8408 15.8652H15.3954C16.0944 15.8652 16.6606 15.299 16.6606 14.6V10.0455C16.6606 9.34648 16.0944 8.78032 15.3954 8.78032H10.8408C10.1419 8.78032 9.57569 9.34648 9.57569 10.0455ZM4.51506 16.3713C5.58879 16.3713 6.61854 15.9447 7.37779 15.1855C8.13703 14.4262 8.56357 13.3965 8.56357 12.3228C8.56357 11.249 8.13703 10.2193 7.37779 9.46004C6.61854 8.7008 5.58879 8.27426 4.51506 8.27426C3.44133 8.27426 2.41157 8.7008 1.65233 9.46004C0.893091 10.2193 0.466553 11.249 0.466553 12.3228C0.466553 13.3965 0.893091 14.4262 1.65233 15.1855C2.41157 15.9447 3.44133 16.3713 4.51506 16.3713Z" fill="#14A7A0"/>
</svg>
