<svg width="14" height="12" viewBox="0 0 14 12" fill="none" xmlns="http://www.w3.org/2000/svg">
<path d="M7.88783 0.936511C7.76995 0.691836 7.52082 0.536133 7.24723 0.536133C6.97364 0.536133 6.72674 0.691836 6.60662 0.936511L5.17638 3.87929L1.98225 4.35085C1.71533 4.39089 1.4929 4.57773 1.4106 4.83353C1.3283 5.08933 1.39503 5.37182 1.58632 5.56088L3.90407 7.85417L3.35688 11.095C3.3124 11.3619 3.42361 11.6333 3.64382 11.7912C3.86403 11.9491 4.15542 11.9692 4.39564 11.8424L7.24945 10.3187L10.1033 11.8424C10.3435 11.9692 10.6349 11.9514 10.8551 11.7912C11.0753 11.6311 11.1865 11.3619 11.142 11.095L10.5926 7.85417L12.9104 5.56088C13.1017 5.37182 13.1706 5.08933 13.0861 4.83353C13.0016 4.57773 12.7814 4.39089 12.5144 4.35085L9.31808 3.87929L7.88783 0.936511Z" fill="#14A7A0"/>
</svg>
