<svg width="12" height="13" viewBox="0 0 12 13" fill="none" xmlns="http://www.w3.org/2000/svg">
<path d="M4.17969 2.06169C4.17969 1.39212 4.72293 0.848877 5.3925 0.848877H6.20105C6.87062 0.848877 7.41386 1.39212 7.41386 2.06169V10.9557C7.41386 11.6253 6.87062 12.1685 6.20105 12.1685H5.3925C4.72293 12.1685 4.17969 11.6253 4.17969 10.9557V2.06169ZM0.136963 6.91296C0.136963 6.24338 0.680204 5.70014 1.34978 5.70014H2.15832C2.8279 5.70014 3.37114 6.24338 3.37114 6.91296V10.9557C3.37114 11.6253 2.8279 12.1685 2.15832 12.1685H1.34978C0.680204 12.1685 0.136963 11.6253 0.136963 10.9557V6.91296ZM9.43522 2.46597H10.2438C10.9133 2.46597 11.4566 3.00921 11.4566 3.67878V10.9557C11.4566 11.6253 10.9133 12.1685 10.2438 12.1685H9.43522C8.76565 12.1685 8.22241 11.6253 8.22241 10.9557V3.67878C8.22241 3.00921 8.76565 2.46597 9.43522 2.46597Z" fill="white"/>
</svg>
