<svg width="16" height="13" viewBox="0 0 16 13" fill="none" xmlns="http://www.w3.org/2000/svg">
<path d="M7.77556 9.55308L7.77808 9.55055L8.44535 9.90693L10.5988 11.0569L10.1817 8.5901L10.0604 7.86471L10.5836 7.34657L12.3554 5.59501L9.92646 5.2361L9.1859 5.12742L8.85986 4.4551L7.77808 2.23595L7.77556 2.24353V9.55308ZM12.2012 12.0376C12.2518 12.3409 12.1254 12.6493 11.8752 12.8287C11.6249 13.0082 11.2938 13.0309 11.0209 12.8869L7.77808 11.1555L4.5353 12.8869C4.26233 13.0309 3.93122 13.0082 3.681 12.8287C3.43078 12.6493 3.3044 12.3409 3.35495 12.0376L3.97924 8.35504L1.34558 5.74918C1.12822 5.53435 1.04987 5.21335 1.14591 4.92269C1.24196 4.63203 1.49218 4.41972 1.79548 4.37422L5.42498 3.83839L7.05269 0.494502C7.18918 0.216476 7.46973 0.0395508 7.78061 0.0395508C8.0915 0.0395508 8.37205 0.216476 8.50853 0.494502L10.1337 3.83839L13.7632 4.37422C14.0665 4.41972 14.3193 4.63203 14.4128 4.92269C14.5063 5.21335 14.4305 5.53435 14.2131 5.74918L11.5795 8.35504L12.2012 12.0376Z" fill="#FFC107"/>
</svg>
