<svg width="14" height="14" viewBox="0 0 14 14" fill="none" xmlns="http://www.w3.org/2000/svg">
<path d="M0.138184 6.63795C0.138184 4.9211 0.820201 3.27456 2.0342 2.06057C3.2482 0.846568 4.89473 0.164551 6.61158 0.164551C8.32844 0.164551 9.97497 0.846568 11.189 2.06057C12.403 3.27456 13.085 4.9211 13.085 6.63795C13.085 8.3548 12.403 10.0013 11.189 11.2153C9.97497 12.4293 8.32844 13.1114 6.61158 13.1114C4.89473 13.1114 3.2482 12.4293 2.0342 11.2153C0.820201 10.0013 0.138184 8.3548 0.138184 6.63795ZM4.89967 3.88423C4.70749 3.99043 4.58865 4.19525 4.58865 4.41272V8.86318C4.58865 9.08318 4.70749 9.28547 4.89967 9.39167C5.09185 9.49788 5.32449 9.49535 5.51414 9.37903L9.15543 7.1538C9.33496 7.04254 9.44622 6.84783 9.44622 6.63542C9.44622 6.42301 9.33496 6.22831 9.15543 6.11704L5.51414 3.89181C5.32702 3.77802 5.09185 3.77297 4.89967 3.87917V3.88423Z" fill="#14A7A0"/>
</svg>
