<svg width="10" height="10" viewBox="0 0 10 10" fill="none" xmlns="http://www.w3.org/2000/svg">
<path d="M6.9333 2.91925H6.03881C5.72405 2.91925 5.46976 3.17355 5.46976 3.48831C5.46976 3.80307 5.72405 4.05737 6.03881 4.05737H8.31504C8.6298 4.05737 8.8841 3.80307 8.8841 3.48831V1.21208C8.8841 0.89732 8.6298 0.643023 8.31504 0.643023C8.00028 0.643023 7.74599 0.89732 7.74599 1.21208V2.12257L7.433 1.80959C5.87699 0.253574 3.35535 0.253574 1.79934 1.80959C0.24332 3.36561 0.24332 5.88724 1.79934 7.44326C3.35535 8.99927 5.87699 8.99927 7.433 7.44326C7.65529 7.22097 7.65529 6.85997 7.433 6.63769C7.21072 6.4154 6.84972 6.4154 6.62743 6.63769C5.51599 7.74913 3.71457 7.74913 2.60313 6.63769C1.49169 5.52625 1.49169 3.72482 2.60313 2.61338C3.71457 1.50194 5.51599 1.50194 6.62743 2.61338L6.9333 2.91925Z" fill="#212529"/>
</svg>
