<svg width="30" height="31" viewBox="0 0 30 31" fill="none" xmlns="http://www.w3.org/2000/svg">
<path d="M14.4419 11.4693C15.3323 11.4693 16.0609 10.7408 16.0609 9.85038C16.0609 8.95997 15.3323 8.23145 14.4419 8.23145C13.5515 8.23145 12.823 8.95997 12.823 9.85038C12.823 10.7408 13.5515 11.4693 14.4419 11.4693ZM14.4419 13.0882C13.5515 13.0882 12.823 13.8168 12.823 14.7072C12.823 15.5976 13.5515 16.3261 14.4419 16.3261C15.3323 16.3261 16.0609 15.5976 16.0609 14.7072C16.0609 13.8168 15.3323 13.0882 14.4419 13.0882ZM14.4419 17.9451C13.5515 17.9451 12.823 18.6736 12.823 19.564C12.823 20.4544 13.5515 21.1829 14.4419 21.1829C15.3323 21.1829 16.0609 20.4544 16.0609 19.564C16.0609 18.6736 15.3323 17.9451 14.4419 17.9451Z" fill="white"/>
</svg>
