<svg width="25" height="25" viewBox="0 0 25 25" fill="none" xmlns="http://www.w3.org/2000/svg">
<path fill-rule="evenodd" clip-rule="evenodd" d="M21.3091 8.34781C21.4327 8.61023 21.4953 8.903 21.4953 9.21182C21.4953 10.0063 21.0299 10.6954 20.3574 11.03V19.6006C20.3574 20.4338 19.7181 21.0866 18.8663 21.0866H5.934C5.08227 21.0866 4.38696 20.4338 4.38696 19.6006V11.0299C3.71452 10.6954 3.2771 10.0063 3.2771 9.21182C3.2771 8.90308 3.36057 8.6104 3.48421 8.34806C3.48614 8.34088 3.4879 8.33368 3.48968 8.32649C3.49299 8.313 3.4963 8.29952 3.50069 8.28603L4.75463 4.38428C4.95728 3.75731 5.61585 3.26685 6.25399 3.26685H18.5465C19.1845 3.26685 19.8413 3.75731 20.0438 4.38344L21.2964 8.28671C21.3001 8.29791 21.3019 8.30915 21.3037 8.32038C21.3052 8.32953 21.3066 8.33868 21.3091 8.34781ZM15.4823 14.4002V19.4608L18.4589 19.4607V10.5907C17.9217 11.0714 17.2124 11.3638 16.4347 11.3638C16.0261 11.3638 15.6364 11.2832 15.2806 11.1368C15.0453 11.0562 14.8295 10.9338 14.6418 10.7783C14.5616 10.7195 14.4844 10.6569 14.4104 10.5907C13.8732 11.0714 13.1639 11.3638 12.3862 11.3638C11.6085 11.3638 10.8992 11.0714 10.362 10.5907C10.3419 10.6086 10.3216 10.6263 10.3011 10.6437C10.0574 10.8886 9.75177 11.0722 9.4103 11.169C9.0768 11.2949 8.7153 11.3638 8.33771 11.3638C7.56004 11.3638 6.85066 11.0714 6.31346 10.5907V19.4608H9.34622V14.4002C9.34622 13.7967 9.86341 13.3075 10.4669 13.3075H14.4175C15.0211 13.3075 15.4823 13.7967 15.4823 14.4002Z" fill="white"/>
</svg>
