<svg width="25" height="25" viewBox="0 0 25 25" fill="none" xmlns="http://www.w3.org/2000/svg">
<path d="M7.13286 11.5116C7.13286 10.3944 6.22703 9.48877 5.10964 9.48877C3.99224 9.48877 3.08643 10.3944 3.08643 11.5116C3.08643 12.6288 3.99224 13.5345 5.10964 13.5345C6.22703 13.5345 7.13286 12.6288 7.13286 11.5116Z" fill="#57575B"/>
<path d="M11.7744 11.6894C11.5689 11.5527 11.322 11.4927 11.0767 11.5198C10.8315 11.5469 10.6036 11.6595 10.433 11.8377L8.74057 13.5298H4.09202C3.55434 13.5298 3.03868 13.7433 2.65849 14.1235C2.27829 14.5035 2.0647 15.0191 2.0647 15.5567V18.0103C2.0647 18.0875 2.07989 18.1638 2.10938 18.2349C2.13888 18.3061 2.1821 18.3708 2.23661 18.4253C2.2911 18.4798 2.35579 18.523 2.427 18.5524C2.4982 18.5819 2.57451 18.5971 2.65159 18.5971H3.07839V21.6375C3.07839 21.9063 3.18519 22.164 3.37527 22.3541C3.56537 22.5441 3.82319 22.6509 4.09202 22.6509H6.11938C6.38821 22.6509 6.64603 22.5441 6.83612 22.3541C7.02621 22.164 7.13301 21.9063 7.13301 21.6375V15.5567H9.16033C9.29339 15.5567 9.42516 15.5305 9.5481 15.4796C9.67103 15.4287 9.78274 15.354 9.87683 15.26L11.9043 13.2329C12.0086 13.1286 12.089 13.0028 12.1396 12.8643C12.1903 12.7258 12.2101 12.578 12.1978 12.431C12.1854 12.2841 12.1411 12.1415 12.068 12.0134C11.9948 11.8854 11.8946 11.7748 11.7744 11.6894Z" fill="#57575B"/>
<path d="M20.2841 2.40869H8.14479C7.60821 2.40869 7.09359 2.62181 6.71416 3.00116C6.33473 3.38051 6.12158 3.89502 6.12158 4.43151V7.60901C6.80276 7.78816 7.42545 8.14179 7.92818 8.63502C8.43091 9.12825 8.79632 9.74402 8.98834 10.4216L9.00229 10.4076C9.58917 9.82229 10.3833 9.49204 11.2122 9.48855C11.8391 9.48629 12.4506 9.6827 12.9588 10.0496C13.1407 10.181 13.3076 10.332 13.4565 10.5H18.2609C18.5292 10.5 18.7864 10.6065 18.9762 10.7962C19.1659 10.9859 19.2725 11.2431 19.2725 11.5114C19.2725 11.7796 19.1659 12.0369 18.9762 12.2266C18.7864 12.4162 18.5292 12.5228 18.2609 12.5228H14.2075C14.2122 13.3233 13.8988 14.093 13.3362 14.6627L12.4415 15.557H20.2841C20.8207 15.557 21.3353 15.3439 21.7147 14.9646C22.0942 14.5852 22.3073 14.0707 22.3073 13.5342V4.43151C22.3073 3.89502 22.0942 3.38051 21.7147 3.00116C21.3353 2.62181 20.8207 2.40869 20.2841 2.40869ZM18.2609 7.46574H10.168C9.89971 7.46574 9.64241 7.35917 9.4527 7.1695C9.26299 6.97983 9.1564 6.72257 9.1564 6.45432C9.1564 6.18608 9.26299 5.92883 9.4527 5.73915C9.64241 5.54948 9.89971 5.44292 10.168 5.44292H18.2609C18.5292 5.44292 18.7864 5.54948 18.9762 5.73915C19.1659 5.92883 19.2725 6.18608 19.2725 6.45432C19.2725 6.72257 19.1659 6.97983 18.9762 7.1695C18.7864 7.35917 18.5292 7.46574 18.2609 7.46574Z" fill="#57575B"/>
</svg>
