<svg width="17" height="14" viewBox="0 0 17 14" fill="none" xmlns="http://www.w3.org/2000/svg">
<path d="M11.2143 0.584717H5.55007C4.87997 0.584717 4.33378 1.13597 4.35907 1.80354C4.36412 1.93756 4.36918 2.07158 4.37677 2.20307H1.70649C1.37018 2.20307 1.09961 2.47363 1.09961 2.80995C1.09961 5.1515 1.94671 6.77996 3.08462 7.88499C4.20482 8.97485 5.5703 9.52357 6.57671 9.80173C7.16842 9.96609 7.57301 10.4592 7.57301 10.9548C7.57301 11.4833 7.14314 11.9132 6.61464 11.9132H5.95466C5.50708 11.9132 5.14548 12.2748 5.14548 12.7223C5.14548 13.1699 5.50708 13.5315 5.95466 13.5315H10.8097C11.2573 13.5315 11.6189 13.1699 11.6189 12.7223C11.6189 12.2748 11.2573 11.9132 10.8097 11.9132H10.1497C9.62123 11.9132 9.19136 11.4833 9.19136 10.9548C9.19136 10.4592 9.59342 9.96356 10.1877 9.80173C11.1966 9.52357 12.5621 8.97485 13.6823 7.88499C14.8177 6.77996 15.6648 5.1515 15.6648 2.80995C15.6648 2.47363 15.3942 2.20307 15.0579 2.20307H12.3876C12.3952 2.07158 12.4002 1.94008 12.4053 1.80354C12.4306 1.13597 11.8844 0.584717 11.2143 0.584717ZM2.33613 3.41683H4.47033C4.70044 5.69516 5.2087 7.21742 5.78271 8.23648C5.15307 7.95832 4.49814 7.56638 3.93172 7.01513C3.12255 6.22871 2.46509 5.09334 2.33866 3.41683H2.33613ZM12.8352 7.01513C12.2688 7.56638 11.6138 7.95832 10.9842 8.23648C11.5582 7.21742 12.0665 5.69516 12.2966 3.41683H14.4308C14.3018 5.09334 13.6444 6.22871 12.8377 7.01513H12.8352Z" fill="#212529" fill-opacity="0.75"/>
</svg>
