<svg width="11" height="12" viewBox="0 0 11 12" fill="none" xmlns="http://www.w3.org/2000/svg">
<path d="M2.56018 0.072998C1.38775 0.072998 0.436523 1.02422 0.436523 2.19666V9.27553C0.436523 10.448 1.38775 11.3992 2.56018 11.3992H8.93117H9.63906C10.0306 11.3992 10.3469 11.0829 10.3469 10.6913C10.3469 10.2998 10.0306 9.98342 9.63906 9.98342V8.56764C10.0306 8.56764 10.3469 8.25131 10.3469 7.85976V0.780885C10.3469 0.389335 10.0306 0.072998 9.63906 0.072998H8.93117H2.56018ZM2.56018 8.56764H8.22328V9.98342H2.56018C2.16863 9.98342 1.8523 9.66708 1.8523 9.27553C1.8523 8.88398 2.16863 8.56764 2.56018 8.56764ZM3.26807 3.25849C3.26807 3.06382 3.42735 2.90455 3.62202 2.90455H7.86934C8.06401 2.90455 8.22328 3.06382 8.22328 3.25849C8.22328 3.45316 8.06401 3.61243 7.86934 3.61243H3.62202C3.42735 3.61243 3.26807 3.45316 3.26807 3.25849ZM3.62202 4.32032H7.86934C8.06401 4.32032 8.22328 4.4796 8.22328 4.67426C8.22328 4.86893 8.06401 5.02821 7.86934 5.02821H3.62202C3.42735 5.02821 3.26807 4.86893 3.26807 4.67426C3.26807 4.4796 3.42735 4.32032 3.62202 4.32032Z" fill="white"/>
</svg>
