<svg width="15" height="12" viewBox="0 0 15 12" fill="none" xmlns="http://www.w3.org/2000/svg">
<path d="M7.33238 0.314697C8.83533 0.314697 10.2767 0.911739 11.3395 1.97448C12.4022 3.03722 12.9992 4.47861 12.9992 5.98155C12.9992 7.4845 12.4022 8.92588 11.3395 9.98863C10.2767 11.0514 8.83533 11.6484 7.33238 11.6484C5.82944 11.6484 4.38805 11.0514 3.32531 9.98863C2.26257 8.92588 1.66553 7.4845 1.66553 5.98155C1.66553 4.47861 2.26257 3.03722 3.32531 1.97448C4.38805 0.911739 5.82944 0.314697 7.33238 0.314697ZM6.80112 2.97104V5.98155C6.80112 6.15864 6.88966 6.32466 7.03797 6.42428L9.16304 7.84099C9.40654 8.0048 9.73637 7.93839 9.90018 7.69268C10.064 7.44697 9.99758 7.11935 9.75187 6.95554L7.86365 5.69821V2.97104C7.86365 2.67663 7.62679 2.43977 7.33238 2.43977C7.03797 2.43977 6.80112 2.67663 6.80112 2.97104Z" fill="#212529" fill-opacity="0.75"/>
</svg>
