<svg width="18" height="14" viewBox="0 0 18 14" fill="none" xmlns="http://www.w3.org/2000/svg">
<path d="M2.51728 2.99213C2.51728 2.09951 3.243 1.37378 4.13563 1.37378H13.8457C14.7383 1.37378 15.4641 2.09951 15.4641 2.99213V9.46553H13.8457V2.99213H4.13563V9.46553H2.51728V2.99213ZM0.898926 10.7602C0.898926 10.4922 1.11639 10.2747 1.38443 10.2747H16.5969C16.865 10.2747 17.0824 10.4922 17.0824 10.7602C17.0824 11.8324 16.2126 12.7022 15.1404 12.7022H2.84095C1.76879 12.7022 0.898926 11.8324 0.898926 10.7602ZM8.00449 5.84953L7.2206 6.63342L8.00449 7.4173C8.24219 7.655 8.24219 8.03936 8.00449 8.27452C7.7668 8.50969 7.38244 8.51222 7.14727 8.27452L5.93351 7.06076C5.69582 6.82307 5.69582 6.43871 5.93351 6.20354L7.14727 4.98978C7.38497 4.75208 7.76933 4.75208 8.00449 4.98978C8.23966 5.22747 8.24219 5.61183 8.00449 5.847V5.84953ZM10.8366 4.98978L12.0504 6.20354C12.2881 6.44124 12.2881 6.8256 12.0504 7.06076L10.8366 8.27452C10.5989 8.51222 10.2146 8.51222 9.97939 8.27452C9.74422 8.03683 9.74169 7.65247 9.97939 7.4173L10.7633 6.63342L9.97939 5.84953C9.74169 5.61183 9.74169 5.22748 9.97939 4.99231C10.2171 4.75714 10.6014 4.75461 10.8366 4.99231V4.98978Z" fill="#212529" fill-opacity="0.75"/>
</svg>
