<svg width="66" height="66" viewBox="0 0 66 66" fill="none" xmlns="http://www.w3.org/2000/svg">
<path d="M65.1531 52.9297C65.1531 57.3957 61.522 61.0267 57.056 61.0267H8.47397C4.00796 61.0267 0.376953 57.3957 0.376953 52.9297V12.4447C0.376953 7.97866 4.00796 4.34766 8.47397 4.34766H24.668C27.211 4.34766 29.6148 5.54956 31.1456 7.58646L33.5747 10.8253C34.3338 11.85 35.5357 12.4447 36.8135 12.4447H57.056C61.522 12.4447 65.1531 16.0757 65.1531 20.5417V52.9297ZM29.7286 47.8691C29.7286 49.5518 31.0823 50.9055 32.765 50.9055C34.4477 50.9055 35.8014 49.5518 35.8014 47.8691V39.7721H43.8984C45.5811 39.7721 46.9348 38.4184 46.9348 36.7357C46.9348 35.053 45.5811 33.6993 43.8984 33.6993H35.8014V25.6023C35.8014 23.9197 34.4477 22.5659 32.765 22.5659C31.0823 22.5659 29.7286 23.9197 29.7286 25.6023V33.6993H21.6316C19.9489 33.6993 18.5952 35.053 18.5952 36.7357C18.5952 38.4184 19.9489 39.7721 21.6316 39.7721H29.7286V47.8691Z" fill="white"/>
</svg>
