<svg width="14" height="14" viewBox="0 0 14 14" fill="none" xmlns="http://www.w3.org/2000/svg">
<path d="M3.23652 1.28907C3.35031 1.13482 3.53238 1.04126 3.72455 1.04126H9.79337C9.98555 1.04126 10.1676 1.13229 10.2814 1.28907L13.1135 5.13265C13.2855 5.36529 13.2678 5.68643 13.0756 5.90137L7.20906 12.3748C7.09527 12.5012 6.93091 12.5745 6.75896 12.5745C6.58701 12.5745 6.42518 12.5012 6.30886 12.3748L0.442338 5.90137C0.247631 5.68643 0.232459 5.36529 0.404408 5.13265L3.23652 1.28907ZM4.21006 2.29548C4.12661 2.3587 4.10386 2.47249 4.15696 2.56099L5.60842 4.9784L1.88621 5.28943C1.78253 5.29701 1.70162 5.38552 1.70162 5.49172C1.70162 5.59793 1.78253 5.6839 1.88621 5.69402L6.74126 6.0986C6.75137 6.0986 6.76402 6.0986 6.77413 6.0986L11.6292 5.69402C11.7329 5.68643 11.8138 5.59793 11.8138 5.49172C11.8138 5.38552 11.7329 5.29954 11.6292 5.28943L7.90951 4.98093L9.36096 2.56352C9.41407 2.47502 9.39131 2.3587 9.30786 2.29801C9.22441 2.23732 9.1081 2.24744 9.03729 2.3233L6.75896 4.78875L4.48063 2.32077C4.40982 2.24491 4.29351 2.23479 4.21006 2.29548Z" fill="#212529" fill-opacity="0.75"/>
</svg>
