<svg width="17" height="14" viewBox="0 0 17 14" fill="none" xmlns="http://www.w3.org/2000/svg">
<path d="M5.55044 9.63603C8.45588 9.63603 10.8101 7.64344 10.8101 5.18557C10.8101 2.7277 8.45588 0.735107 5.55044 0.735107C2.645 0.735107 0.290804 2.7277 0.290804 5.18557C0.290804 6.16164 0.662519 7.06437 1.29216 7.80022C1.20365 8.03791 1.07216 8.24779 0.933087 8.4248C0.81171 8.58158 0.687806 8.70295 0.596773 8.7864C0.551257 8.82686 0.513327 8.85973 0.48804 8.87996C0.475397 8.89007 0.465282 8.89766 0.460225 8.90019L0.455168 8.90525C0.316091 9.00892 0.255403 9.19099 0.311033 9.35535C0.366664 9.51971 0.520913 9.63603 0.695392 9.63603C1.24664 9.63603 1.80295 9.49443 2.2657 9.31995C2.49833 9.23144 2.7158 9.13283 2.90292 9.03168C3.68175 9.41604 4.58449 9.63603 5.55044 9.63603ZM11.6193 5.18557C11.6193 8.02527 9.11334 10.1645 6.14468 10.4199C6.75915 12.3013 8.79726 13.6819 11.2147 13.6819C12.1806 13.6819 13.0834 13.4619 13.8622 13.0776C14.0518 13.1787 14.2668 13.2773 14.4994 13.3658C14.9622 13.5403 15.5185 13.6819 16.0697 13.6819C16.2442 13.6819 16.401 13.5681 16.4541 13.4012C16.5072 13.2343 16.449 13.0523 16.3074 12.9486L16.3024 12.9435C16.2973 12.9385 16.2872 12.9334 16.2745 12.9233C16.2493 12.9031 16.2113 12.8727 16.1658 12.8297C16.0748 12.7463 15.9509 12.6249 15.8295 12.4681C15.6904 12.2911 15.5589 12.0787 15.4704 11.8436C16.1001 11.1102 16.4718 10.2075 16.4718 9.22892C16.4718 6.88231 14.3249 4.95799 11.6016 4.7911C11.6117 4.92006 11.6167 5.05155 11.6167 5.18304L11.6193 5.18557Z" fill="#212529" fill-opacity="0.75"/>
</svg>
