<svg width="15" height="12" viewBox="0 0 15 12" fill="none" xmlns="http://www.w3.org/2000/svg">
<path d="M2.14062 1.02305C2.14062 0.631244 2.45717 0.314697 2.84898 0.314697H5.68241C6.07422 0.314697 6.39077 0.631244 6.39077 1.02305V9.52334C6.39077 10.6966 5.43891 11.6484 4.2657 11.6484C3.09248 11.6484 2.14062 10.6966 2.14062 9.52334V1.02305ZM7.09027 9.74249C7.09691 9.66944 7.09912 9.59639 7.09912 9.52334V3.72367L8.76819 2.0546C9.04489 1.7779 9.49426 1.7779 9.77096 2.0546L11.7743 4.05792C12.051 4.33462 12.051 4.78399 11.7743 5.06069L7.09027 9.74249ZM6.18711 11.6484L10.4373 7.39827H12.766C13.1578 7.39827 13.4743 7.71481 13.4743 8.10662V10.9401C13.4743 11.3319 13.1578 11.6484 12.766 11.6484H6.18711ZM4.97405 1.73141H3.55734V3.14813H4.97405V1.73141ZM3.55734 4.56484V5.98155H4.97405V4.56484H3.55734ZM4.2657 10.0546C4.4066 10.0546 4.54173 9.99863 4.64136 9.899C4.74099 9.79937 4.79696 9.66424 4.79696 9.52334C4.79696 9.38244 4.74099 9.24731 4.64136 9.14768C4.54173 9.04804 4.4066 8.99207 4.2657 8.99207C4.1248 8.99207 3.98967 9.04804 3.89003 9.14768C3.7904 9.24731 3.73443 9.38244 3.73443 9.52334C3.73443 9.66424 3.7904 9.79937 3.89003 9.899C3.98967 9.99863 4.1248 10.0546 4.2657 10.0546Z" fill="#212529" fill-opacity="0.75"/>
</svg>
