<svg width="12" height="12" viewBox="0 0 12 12" fill="none" xmlns="http://www.w3.org/2000/svg">
<path d="M9.36758 5.17549C9.36758 6.19173 9.03769 7.13047 8.48197 7.8921L11.2849 10.6973C11.5617 10.974 11.5617 11.4235 11.2849 11.7002C11.0082 11.977 10.5587 11.977 10.282 11.7002L7.47901 8.89505C6.71739 9.45299 5.77864 9.78066 4.7624 9.78066C2.21849 9.78066 0.157227 7.71941 0.157227 5.17549C0.157227 2.63157 2.21849 0.570312 4.7624 0.570312C7.30632 0.570312 9.36758 2.63157 9.36758 5.17549ZM4.7624 8.36369C5.18108 8.36369 5.59566 8.28122 5.98247 8.121C6.36928 7.96078 6.72075 7.72594 7.0168 7.42988C7.31285 7.13383 7.54769 6.78237 7.70791 6.39556C7.86814 6.00875 7.9506 5.59417 7.9506 5.17549C7.9506 4.75681 7.86814 4.34223 7.70791 3.95542C7.54769 3.56861 7.31285 3.21714 7.0168 2.92109C6.72075 2.62504 6.36928 2.3902 5.98247 2.22998C5.59566 2.06975 5.18108 1.98729 4.7624 1.98729C4.34372 1.98729 3.92914 2.06975 3.54233 2.22998C3.15552 2.3902 2.80406 2.62504 2.50801 2.92109C2.21195 3.21714 1.97711 3.56861 1.81689 3.95542C1.65667 4.34223 1.5742 4.75681 1.5742 5.17549C1.5742 5.59417 1.65667 6.00875 1.81689 6.39556C1.97711 6.78237 2.21195 7.13383 2.50801 7.42988C2.80406 7.72594 3.15552 7.96078 3.54233 8.121C3.92914 8.28122 4.34372 8.36369 4.7624 8.36369Z" fill="black"/>
</svg>
