<svg width="10" height="12" viewBox="0 0 10 12" fill="none" xmlns="http://www.w3.org/2000/svg">
<path d="M4.92644 0.640814C4.99502 0.627541 5.06581 0.627541 5.13438 0.640814L9.55868 1.52567C9.80644 1.57434 9.98562 1.79334 9.98562 2.04553C9.98562 2.29771 9.80644 2.51671 9.55868 2.56538L7.86196 2.90605V4.16919C7.86196 5.73318 6.5944 7.00074 5.03041 7.00074C3.46643 7.00074 2.19886 5.73318 2.19886 4.16919V2.90605L1.13703 2.69369V4.13379L1.48434 5.86812C1.50425 5.97209 1.4777 6.08048 1.41134 6.16233C1.34498 6.24418 1.24322 6.29285 1.13703 6.29285H0.429147C0.322964 6.29285 0.223417 6.2464 0.154841 6.16233C0.0862642 6.07827 0.0597185 5.97209 0.0818399 5.86812L0.429147 4.13379V2.54547C0.218993 2.47247 0.0752035 2.27338 0.0752035 2.04553C0.0752035 1.79334 0.254387 1.57434 0.502148 1.52567L4.92644 0.640814ZM2.5506 7.87896C2.78287 7.80375 3.03284 7.88781 3.20097 8.06699L4.77159 9.73716C4.91096 9.88538 5.14766 9.88538 5.28702 9.73716L6.85765 8.06699C7.02577 7.88781 7.27574 7.80375 7.50802 7.87896C8.94591 8.3413 9.98562 9.68628 9.98562 11.2768C9.98562 11.6529 9.68035 11.9559 9.30649 11.9559H0.754333C0.38048 11.9559 0.0752035 11.6507 0.0752035 11.2768C0.0752035 9.68628 1.11491 8.3413 2.5506 7.87896Z" fill="#6C757D"/>
</svg>
