<svg width="12" height="12" viewBox="0 0 12 12" fill="none" xmlns="http://www.w3.org/2000/svg">
<path d="M6.13221 0.664062C3.10252 0.664062 0.646484 3.1201 0.646484 6.14979C0.646484 9.17948 3.10252 11.6355 6.13221 11.6355C9.1619 11.6355 11.6179 9.17948 11.6179 6.14979C11.6179 3.1201 9.1619 0.664062 6.13221 0.664062ZM8.67493 4.3948C8.59238 5.26223 8.23517 7.36722 8.05336 8.33877C7.97648 8.74985 7.82504 8.8877 7.67848 8.90117C7.35995 8.9305 7.118 8.69065 6.80945 8.48839C6.32664 8.1719 6.05388 7.97488 5.58521 7.66604C5.0436 7.30913 5.39471 7.11304 5.70337 6.7923C5.78415 6.7084 7.18777 5.43171 7.21493 5.31589C7.21832 5.3014 7.22157 5.24732 7.18941 5.21892C7.15725 5.19052 7.11 5.20014 7.07582 5.20786C7.02741 5.21886 6.2561 5.72866 4.76191 6.73727C4.54299 6.8876 4.3447 6.96084 4.16702 6.95701C3.97114 6.95278 3.59438 6.84628 3.31427 6.75521C2.97073 6.64355 2.69768 6.58451 2.72146 6.39485C2.73385 6.29605 2.86988 6.19504 3.12957 6.09181C4.72878 5.39507 5.79516 4.93571 6.32872 4.71374C7.85216 4.08008 8.16872 3.97001 8.37505 3.96634C8.42044 3.96558 8.52191 3.97682 8.58763 4.03015C8.63134 4.06814 8.65921 4.12116 8.66571 4.17871C8.67685 4.25017 8.67994 4.32265 8.67493 4.3948Z" fill="#6C757D"/>
</svg>
