<svg width="15" height="18" viewBox="0 0 15 18" fill="none" xmlns="http://www.w3.org/2000/svg">
<path d="M7.85674 0.878174C7.29691 0.878174 6.84461 1.33047 6.84461 1.8903V2.49758C4.5357 2.96568 2.79611 5.00892 2.79611 7.457V8.05162C2.79611 9.53818 2.24893 10.9741 1.2621 12.0875L1.02805 12.35C0.762367 12.6473 0.699109 13.0743 0.860417 13.438C1.02172 13.8018 1.38546 14.0358 1.78398 14.0358H13.9295C14.328 14.0358 14.6886 13.8018 14.8531 13.438C15.0175 13.0743 14.9511 12.6473 14.6854 12.35L14.4514 12.0875C13.4646 10.9741 12.9174 9.54134 12.9174 8.05162V7.457C12.9174 5.00892 11.1778 2.96568 8.86887 2.49758V1.8903C8.86887 1.33047 8.41657 0.878174 7.85674 0.878174ZM9.28953 16.4807C9.66908 16.1012 9.88099 15.5856 9.88099 15.0479H7.85674H5.83249C5.83249 15.5856 6.0444 16.1012 6.42395 16.4807C6.8035 16.8603 7.31905 17.0722 7.85674 17.0722C8.39443 17.0722 8.90999 16.8603 9.28953 16.4807Z" fill="#A6B1BF"/>
</svg>
