<svg width="14" height="14" viewBox="0 0 14 14" fill="none" xmlns="http://www.w3.org/2000/svg">
<path d="M7.04127 1.49672C4.13583 1.49672 1.78163 3.85091 1.78163 6.75636V7.76783C1.78163 8.10414 1.51107 8.37471 1.17475 8.37471C0.838439 8.37471 0.567871 8.10414 0.567871 7.76783V6.75636C0.567871 3.18082 3.46573 0.282959 7.04127 0.282959C10.6168 0.282959 13.5147 3.18082 13.5147 6.75636V10.4002C13.5147 11.6291 12.5184 12.6254 11.2869 12.6254L8.49779 12.6229C8.28791 12.9845 7.89596 13.2298 7.44586 13.2298H6.63668C5.96659 13.2298 5.42292 12.6861 5.42292 12.016C5.42292 11.3459 5.96659 10.8022 6.63668 10.8022H7.44586C7.89596 10.8022 8.28791 11.0475 8.49779 11.4091L11.2894 11.4116C11.8483 11.4116 12.3009 10.959 12.3009 10.4002V6.75636C12.3009 3.85091 9.94671 1.49672 7.04127 1.49672ZM4.20916 5.5426H4.61375C5.06132 5.5426 5.42292 5.9042 5.42292 6.35177V9.18388C5.42292 9.63146 5.06132 9.99306 4.61375 9.99306H4.20916C3.31654 9.99306 2.59081 9.26733 2.59081 8.37471V7.16095C2.59081 6.26832 3.31654 5.5426 4.20916 5.5426ZM9.87338 5.5426C10.766 5.5426 11.4917 6.26832 11.4917 7.16095V8.37471C11.4917 9.26733 10.766 9.99306 9.87338 9.99306H9.4688C9.02122 9.99306 8.65962 9.63146 8.65962 9.18388V6.35177C8.65962 5.9042 9.02122 5.5426 9.4688 5.5426H9.87338Z" fill="#212529" fill-opacity="0.75"/>
</svg>
