<svg width="17" height="13" viewBox="0 0 17 13" fill="none" xmlns="http://www.w3.org/2000/svg">
<path d="M1.90918 0.837495C1.90918 0.38992 2.27078 0.0283203 2.71835 0.0283203H5.95505C6.40263 0.0283203 6.76423 0.38992 6.76423 0.837495V10.5476C6.76423 11.8878 5.6769 12.9751 4.3367 12.9751C2.99651 12.9751 1.90918 11.8878 1.90918 10.5476V0.837495ZM7.56329 10.7979C7.57088 10.7145 7.5734 10.631 7.5734 10.5476V3.92247L9.48002 2.01586C9.79611 1.69977 10.3094 1.69977 10.6255 2.01586L12.914 4.3043C13.23 4.62039 13.23 5.13371 12.914 5.44979L7.56329 10.7979ZM6.53159 12.9751L11.3866 8.12007H14.0468C14.4944 8.12007 14.856 8.48167 14.856 8.92924V12.1659C14.856 12.6135 14.4944 12.9751 14.0468 12.9751H6.53159ZM5.14588 1.64667H3.52753V3.26502H5.14588V1.64667ZM3.52753 4.88337V6.50172H5.14588V4.88337H3.52753ZM4.3367 11.1545C4.49766 11.1545 4.65202 11.0905 4.76583 10.9767C4.87965 10.8629 4.94359 10.7085 4.94359 10.5476C4.94359 10.3866 4.87965 10.2323 4.76583 10.1185C4.65202 10.0047 4.49766 9.94071 4.3367 9.94071C4.17575 9.94071 4.02139 10.0047 3.90757 10.1185C3.79376 10.2323 3.72982 10.3866 3.72982 10.5476C3.72982 10.7085 3.79376 10.8629 3.90757 10.9767C4.02139 11.0905 4.17575 11.1545 4.3367 11.1545Z" fill="white"/>
</svg>
