<svg width="17" height="14" viewBox="0 0 17 14" fill="none" xmlns="http://www.w3.org/2000/svg">
<path d="M5.14579 0.877686C3.80559 0.877686 2.71826 1.96501 2.71826 3.30521V11.397C2.71826 12.7372 3.80559 13.8245 5.14579 13.8245H12.4284H13.2375C13.6851 13.8245 14.0467 13.4629 14.0467 13.0153C14.0467 12.5677 13.6851 12.2061 13.2375 12.2061V10.5878C13.6851 10.5878 14.0467 10.2262 14.0467 9.77861V1.68686C14.0467 1.23929 13.6851 0.877686 13.2375 0.877686H12.4284H5.14579ZM5.14579 10.5878H11.6192V12.2061H5.14579C4.69821 12.2061 4.33661 11.8445 4.33661 11.397C4.33661 10.9494 4.69821 10.5878 5.14579 10.5878ZM5.95496 4.51897C5.95496 4.29645 6.13703 4.11439 6.35955 4.11439H11.2146C11.4371 4.11439 11.6192 4.29645 11.6192 4.51897C11.6192 4.7415 11.4371 4.92356 11.2146 4.92356H6.35955C6.13703 4.92356 5.95496 4.7415 5.95496 4.51897ZM6.35955 5.73274H11.2146C11.4371 5.73274 11.6192 5.9148 11.6192 6.13732C11.6192 6.35985 11.4371 6.54191 11.2146 6.54191H6.35955C6.13703 6.54191 5.95496 6.35985 5.95496 6.13732C5.95496 5.9148 6.13703 5.73274 6.35955 5.73274Z" fill="#212529" fill-opacity="0.75"/>
</svg>
