<svg width="17" height="14" viewBox="0 0 17 14" fill="none" xmlns="http://www.w3.org/2000/svg">
<path d="M4.3364 1.90204C4.3364 1.00942 5.06213 0.283691 5.95475 0.283691H14.8557C15.7483 0.283691 16.474 1.00942 16.474 1.90204V9.18462C16.474 10.0772 15.7483 10.803 14.8557 10.803H8.80709C8.50871 10.1582 8.05102 9.60185 7.48207 9.18462H10.0006V8.37544C10.0006 7.92787 10.3622 7.56627 10.8098 7.56627H12.4282C12.8757 7.56627 13.2373 7.92787 13.2373 8.37544V9.18462H14.8557V1.90204H5.95475V3.14362C5.47936 2.86799 4.92558 2.71122 4.3364 2.71122V1.90204ZM4.3364 3.52039C4.65519 3.52039 4.97085 3.58318 5.26538 3.70518C5.5599 3.82717 5.8275 4.00598 6.05292 4.2314C6.27834 4.45681 6.45715 4.72442 6.57914 5.01894C6.70114 5.31346 6.76393 5.62913 6.76393 5.94792C6.76393 6.2667 6.70114 6.58237 6.57914 6.87689C6.45715 7.17141 6.27834 7.43902 6.05292 7.66444C5.8275 7.88985 5.5599 8.06866 5.26538 8.19066C4.97085 8.31265 4.65519 8.37544 4.3364 8.37544C4.01761 8.37544 3.70195 8.31265 3.40743 8.19066C3.11291 8.06866 2.8453 7.88985 2.61988 7.66444C2.39447 7.43902 2.21566 7.17141 2.09366 6.87689C1.97167 6.58237 1.90888 6.2667 1.90888 5.94792C1.90888 5.62913 1.97167 5.31346 2.09366 5.01894C2.21566 4.72442 2.39447 4.45681 2.61988 4.2314C2.8453 4.00598 3.11291 3.82717 3.40743 3.70518C3.70195 3.58318 4.01761 3.52039 4.3364 3.52039ZM3.66125 9.18462H5.00903C6.87266 9.18462 8.38228 10.6942 8.38228 12.5553C8.38228 12.927 8.08136 13.2305 7.70712 13.2305H0.965683C0.591439 13.2305 0.290527 12.9296 0.290527 12.5553C0.290527 10.6942 1.80014 9.18462 3.66125 9.18462Z" fill="#212529" fill-opacity="0.75"/>
</svg>
